<svg xmlns="http://www.w3.org/2000/svg" viewBox="0 0 288.24 288.24"><defs><style>.cls-1{fill:#eca821;}.cls-1,.cls-2,.cls-3,.cls-5{stroke:#231f20;stroke-miterlimit:10;}.cls-1,.cls-2,.cls-5{stroke-width:0.75px;}.cls-2{fill:#005180;}.cls-3,.cls-6{fill:#fff;}.cls-4{font-size:27.11px;font-family:MyanmarText-Bold, Myanmar Text;font-weight:700;}.cls-4,.cls-7{fill:#231f20;}.cls-5{fill:#fadd31;}.cls-7{font-size:6px;font-family:PalatinoLinotype-Roman, Palatino Linotype;}.cls-8{font-size:9.5px;letter-spacing:0em;}</style></defs><title>Bomba Tica - Isolated</title><g id="Layer_1" data-name="Layer 1"><circle class="cls-1" cx="144.12" cy="144.12" r="143.74"/><circle class="cls-2" cx="144.12" cy="144.12" r="137.94"/><circle class="cls-3" cx="144.12" cy="144.12" r="126.27"/><circle class="cls-1" cx="167.56" cy="125.34" r="56.6"/><text class="cls-4" transform="matrix(0.9, -0.43, 0.43, 0.9, 133.46, 73.48)">B</text><text class="cls-4" transform="translate(149.78 65.94) rotate(-9.18)">o</text><text class="cls-4" transform="translate(166.91 62.6) rotate(10.56)">m</text><text class="cls-4" transform="matrix(0.86, 0.5, -0.5, 0.86, 191.77, 68.05)">b</text><text class="cls-4" transform="translate(206.68 76.98) rotate(45.17)">a</text><text class="cls-4" transform="translate(217 87.89) rotate(55.83)"> </text><text class="cls-4" transform="translate(221.76 94.27) rotate(66.97)">T</text><text class="cls-4" transform="translate(227.74 109.47) rotate(78.19)">i</text><text class="cls-4" transform="translate(229.6 117.42) rotate(88.21)">c</text><text class="cls-4" transform="translate(230.05 130.94) rotate(101.42)">a</text><path class="cls-5" d="M104.56,56.82a8.16,8.16,0,0,0,1.85,11.39,8.48,8.48,0,0,0,1.66.93,22.27,22.27,0,0,1-7.77,13.39,12.75,12.75,0,0,0-1,18.75l-3.74,5.17a2.17,2.17,0,0,0,.48,3l7.38,5.34a32.2,32.2,0,1,0,12.36-17.09L108.4,92.4a2.19,2.19,0,0,0-3,.49l-3.45,4.77a8.37,8.37,0,0,1,1.16-11.77,26.6,26.6,0,0,0,9.32-16.2,8.17,8.17,0,1,0-7.83-12.87Z" transform="translate(-5.55 -5.55)"/><path class="cls-5" d="M103.38,56a2.17,2.17,0,0,0-.49-3l-2.49-1.8a2.18,2.18,0,0,0-2.55,3.53l2.49,1.8A2.17,2.17,0,0,0,103.38,56Z" transform="translate(-5.55 -5.55)"/><path class="cls-5" d="M111.08,51.22a2.16,2.16,0,0,0,.38-1.62l-.48-3a2.18,2.18,0,1,0-4.31.69l.49,3a2.18,2.18,0,0,0,3.92.93Z" transform="translate(-5.55 -5.55)"/><path class="cls-5" d="M118.14,48.27l-1.8,2.49a2.18,2.18,0,0,0,3.53,2.56l1.8-2.49a2.18,2.18,0,1,0-3.53-2.56Z" transform="translate(-5.55 -5.55)"/><path class="cls-5" d="M122.5,57.58a2.18,2.18,0,1,0,.69,4.31l3-.49A2.19,2.19,0,0,0,128,58.9a2.18,2.18,0,0,0-2.5-1.8Z" transform="translate(-5.55 -5.55)"/><path class="cls-5" d="M99.87,65.63a2.18,2.18,0,1,0-.69-4.3l-3,.49a2.18,2.18,0,1,0,.69,4.3Z" transform="translate(-5.55 -5.55)"/><rect class="cls-2" x="45.73" y="153.36" width="179.63" height="39.92" rx="9.55"/><path class="cls-6" d="M82,173.43a8.34,8.34,0,0,0-1.43-3.05c-.68-.72-1.1-.85-2.67-.85H75.41c-1.1,0-1.23.06-1.23,1.17v7.09h3.48c1.92,0,2.18-.49,2.67-2.76h1.2v7.22H80.29c-.35-2.21-.84-2.77-2.63-2.77H74.18v5.08c0,3,.19,3.22,3.12,3.41v1.21H66.89V188c2.47-.22,2.77-.42,2.77-3.41v-12c0-2.9-.3-3.16-2.77-3.35V168h11c2.8,0,4.42,0,4.94-.06,0,.55.2,3.35.36,5.27Z" transform="translate(-5.55 -5.55)"/><path class="cls-6" d="M98.12,189.57a3,3,0,0,1-2-.68,3.45,3.45,0,0,1-.85-1.21c-1.23.82-2.83,1.89-3.44,1.89a4.28,4.28,0,0,1-4.43-4.2c0-1.72.78-2.5,2.51-3.19,1.92-.71,4.49-1.49,5.24-2.14v-1.43c0-1.7-.62-2.64-2-2.64a1.6,1.6,0,0,0-1.3.65,6.2,6.2,0,0,0-.78,2.15,1.29,1.29,0,0,1-1.4,1.11,2,2,0,0,1-1.92-1.7c0-.58.39-1,1.14-1.53a16.08,16.08,0,0,1,5.2-2.31,5.71,5.71,0,0,1,3.35.95,4.4,4.4,0,0,1,1.79,4v5.63c0,1.56.52,2,1,2a2.48,2.48,0,0,0,1-.26l.36,1.1Zm-3-8.2-1.83,1a2.35,2.35,0,0,0-1.59,2.21,2.22,2.22,0,0,0,2,2.47,1.85,1.85,0,0,0,1.44-.52Z" transform="translate(-5.55 -5.55)"/><path class="cls-6" d="M114.54,189.18H106v-1.11c1.73-.19,1.89-.36,1.89-2.31v-7.12c0-1.63-.13-1.79-1.66-2.12v-1a31.41,31.41,0,0,0,5.86-1.24v3.51c1.46-2.24,2.63-3.45,4-3.45a2,2,0,0,1,2.11,2,3.16,3.16,0,0,1-1.66,2.76.9.9,0,0,1-1-.16c-.55-.46-1-1-1.53-1s-1.3.43-1.88,1.66v6.18c0,2,.23,2.05,2.5,2.31Z" transform="translate(-5.55 -5.55)"/><path class="cls-6" d="M140.63,189.18v-1.11c1.3-.19,1.53-.32,1.53-2.31v-5.63c0-2.7-1.27-3.18-2.28-3.18a3.68,3.68,0,0,0-2.41,1c0,.39.07.87.07,1.36v6.57c0,1.82.1,2,1.59,2.18v1.11h-7.32v-1.11c1.44-.19,1.57-.29,1.57-2.18V180c0-2.31-.92-3.06-2.12-3.06a4.11,4.11,0,0,0-2.5,1v8c0,1.82.19,2,1.4,2.18v1.11h-7.45v-1.11c1.78-.23,1.88-.36,1.88-2.31v-6.89c0-1.83,0-2.12-1.56-2.35v-1a34.39,34.39,0,0,0,5.73-1.23v2.44c.71-.49,1.3-.91,2-1.34a5.15,5.15,0,0,1,2.77-1,3.73,3.73,0,0,1,3.64,2.48c.78-.59,1.43-1,2.24-1.6a5.06,5.06,0,0,1,2.61-.88c2.83,0,4.32,1.92,4.32,5.24v6.31c0,1.79.17,1.92,1.76,2.18v1.11Z" transform="translate(-5.55 -5.55)"/><path class="cls-6" d="M163.63,189.57a3,3,0,0,1-2-.68,3.21,3.21,0,0,1-.85-1.21c-1.23.82-2.83,1.89-3.45,1.89a4.28,4.28,0,0,1-4.42-4.2c0-1.72.78-2.5,2.5-3.19,1.92-.71,4.49-1.49,5.24-2.14v-1.43c0-1.7-.62-2.64-2-2.64a1.62,1.62,0,0,0-1.31.65,6.2,6.2,0,0,0-.78,2.15,1.29,1.29,0,0,1-1.4,1.11,2,2,0,0,1-1.92-1.7c0-.58.4-1,1.14-1.53a16.23,16.23,0,0,1,5.21-2.31,5.71,5.71,0,0,1,3.35.95,4.4,4.4,0,0,1,1.79,4v5.63c0,1.56.52,2,1,2a2.52,2.52,0,0,0,1-.26l.36,1.1Zm-3-8.2-1.82,1a2.35,2.35,0,0,0-1.59,2.21,2.21,2.21,0,0,0,2,2.47,1.82,1.82,0,0,0,1.43-.52Z" transform="translate(-5.55 -5.55)"/><path class="cls-6" d="M184.28,186c-1.5,2.15-3.68,3.55-5.66,3.55a6.86,6.86,0,0,1-7.12-7,7.77,7.77,0,0,1,3.31-6.22,9.55,9.55,0,0,1,5.66-2,5.06,5.06,0,0,1,2.87.79,1.35,1.35,0,0,1,.61,1.2,2.06,2.06,0,0,1-1.46,1.82,1,1,0,0,1-.72-.36,5.76,5.76,0,0,0-3.38-1.69c-1.27,0-2.8,1.24-2.8,4.75,0,4.33,3.16,5.73,4.56,5.73a4.85,4.85,0,0,0,3.48-1.37Z" transform="translate(-5.55 -5.55)"/><path class="cls-6" d="M188.9,189.18v-1.11c1.75-.23,1.95-.36,1.95-2.66v-6.35c0-2.18-.17-2.31-1.69-2.5v-1.08a35.79,35.79,0,0,0,5.88-1.17v11.1c0,2.21.13,2.43,2,2.66v1.11Zm3.8-16.85a2.36,2.36,0,0,1-2.34-2.31,2.32,2.32,0,0,1,2.37-2.31,2.28,2.28,0,0,1,2.35,2.31A2.33,2.33,0,0,1,192.7,172.33Z" transform="translate(-5.55 -5.55)"/><path class="cls-6" d="M212.84,189.57a3,3,0,0,1-2-.68,3.32,3.32,0,0,1-.85-1.21c-1.23.82-2.83,1.89-3.45,1.89a4.28,4.28,0,0,1-4.42-4.2c0-1.72.78-2.5,2.51-3.19,1.91-.71,4.48-1.49,5.23-2.14v-1.43c0-1.7-.62-2.64-2-2.64a1.62,1.62,0,0,0-1.31.65,6.2,6.2,0,0,0-.78,2.15,1.28,1.28,0,0,1-1.4,1.11,2,2,0,0,1-1.91-1.7c0-.58.39-1,1.13-1.53a16.23,16.23,0,0,1,5.21-2.31,5.71,5.71,0,0,1,3.35.95,4.4,4.4,0,0,1,1.79,4v5.63c0,1.56.52,2,1,2a2.48,2.48,0,0,0,1-.26l.36,1.1Zm-3-8.2-1.82,1a2.35,2.35,0,0,0-1.59,2.21,2.22,2.22,0,0,0,2,2.47,1.82,1.82,0,0,0,1.43-.52Z" transform="translate(-5.55 -5.55)"/></g><g id="Layer_2" data-name="Layer 2"><text class="cls-7" transform="translate(51.82 205.46)">El mejor servicio... <tspan class="cls-8" x="50.24" y="0">¡Con los precios explotados!</tspan></text></g></svg>