<svg id="Layer_1" data-name="Layer 1" xmlns="http://www.w3.org/2000/svg" viewBox="0 0 4988.38 729.48"><defs><style>.cls-1{fill:#d52027;}.cls-2{fill:#199467;}.cls-3{fill:#231f20;}</style></defs><title>Phischel</title><path class="cls-1" d="M584.22,1022.36q49.95,0,87.56,13.53t62.58,36A148.15,148.15,0,0,1,772,1123.45a150.06,150.06,0,0,1,12.64,60.35,155.6,155.6,0,0,1-11.3,57.68q-11.29,28.55-34,52.63t-57.38,41.62q-34.65,17.55-81.32,24.68-.9,21.71-1.49,39.84-.3,7.74-.59,15.46t-.45,14.12c-.1,4.27-.2,8-.3,11.15s-.14,5.35-.14,6.54a271.18,271.18,0,0,1-4.91,43.26,260.78,260.78,0,0,1-12.49,43.86,244.4,244.4,0,0,1-19.92,40.58,157.35,157.35,0,0,1-27.35,33.6A125.37,125.37,0,0,1,498,1631.71a103.93,103.93,0,0,1-42.22,8.48q-24.37,0-43.55-12.64t-33.6-34a219.88,219.88,0,0,1-24.38-49.36,431.63,431.63,0,0,1-16.2-58.42,556.49,556.49,0,0,1-9.07-61.4q-2.84-30.91-2.83-58.27a466.53,466.53,0,0,1,8.63-90.68,421.27,421.27,0,0,1,24.67-81.92,347.45,347.45,0,0,1,38.95-69.72A271.52,271.52,0,0,1,450,1069.63a225.31,225.31,0,0,1,62.43-34.93A207.37,207.37,0,0,1,584.22,1022.36Zm-178.4,336q0,12.2.15,32.85t1.64,44.15q1.49,23.49,4.76,47.58a244.38,244.38,0,0,0,9.66,43.55q6.39,19.49,16.05,31.82t24.23,12.33a35.51,35.51,0,0,0,25.87-10.55q10.71-10.55,17.84-27.35a191.68,191.68,0,0,0,11.3-38.06q4.15-21.26,6.24-42.67t2.68-40.88q.59-19.47.59-33.15v-14q-24.68-9.81-38.8-17.25t-21.26-14.27q-7.12-6.84-9.06-14.42a72,72,0,0,1-1.94-17.69c0-3.57.1-7.08.3-10.55a35.31,35.31,0,0,1,1.64-9.22,16.36,16.36,0,0,1,3.86-6.54,9.47,9.47,0,0,1,7-2.53,12.82,12.82,0,0,1,5.5,1.19c1.68.79,3.81,1.89,6.39,3.27q9.81,5.35,17.84,8.77t13.68,5.5a95.07,95.07,0,0,0,11.89,3.57q0-3.86.15-15.31t1.78-26.17a248.64,248.64,0,0,1,5.5-30.77,116.33,116.33,0,0,1,11.3-29.43A68.36,68.36,0,0,1,561.92,1170q11.88-8.77,29.43-8.77a60.12,60.12,0,0,1,11,1,29.77,29.77,0,0,1,10.26,3.86,24.61,24.61,0,0,1,7.73,7.58q3.12,4.77,3.12,12.19a17.25,17.25,0,0,1-.15,2.83,10.05,10.05,0,0,0-.15,1.93L605,1267.05l-2.68,23.49q29.14-4.45,50.25-14.27t34.93-23.19a88,88,0,0,0,20.52-29.44,85,85,0,0,0,6.69-33,98.3,98.3,0,0,0-6.39-34q-6.4-17.4-22.15-31.67T644,1101.44q-26.47-9.21-66.6-9.21-30,0-54.41,11.44a147.2,147.2,0,0,0-43.41,31.07,201.82,201.82,0,0,0-33,45.79,311.85,311.85,0,0,0-23,55.75,386.78,386.78,0,0,0-13.38,61A447.71,447.71,0,0,0,405.82,1358.33Z" transform="translate(-326.14 -993.52)"/><path class="cls-1" d="M868.45,1379.44q12.19-16.07,27.36-34.49a420.08,420.08,0,0,1,31.51-34.34,217,217,0,0,1,32.56-26.46q16.2-10.56,30.47-10.56a28.32,28.32,0,0,1,8,1.34,22.55,22.55,0,0,1,8.48,4.91,27,27,0,0,1,6.68,10q2.69,6.39,2.68,16.5a138.84,138.84,0,0,1-5.65,39.39q-5.66,19.18-12.34,38.36T986,1423.14a155.65,155.65,0,0,0-5.5,41.63q0,11.89,3.57,19t9.22,7.13a43.77,43.77,0,0,0,15.16-3,99.31,99.31,0,0,0,16.06-7.73,144.19,144.19,0,0,0,15.75-10.85q7.74-6.09,14.57-12.64a339.72,339.72,0,0,0,32.11-34.49l5.06,79.09q-5.36,4.17-13.53,10.41T1060.37,1525q-10,7-21.55,14.12a231.44,231.44,0,0,1-23.34,12.63A175.82,175.82,0,0,1,992,1560.8a77.15,77.15,0,0,1-22.45,3.57q-16.35,0-28.39-8.77a70.32,70.32,0,0,1-19.77-22.3,111.8,111.8,0,0,1-11.6-29.58,129.62,129.62,0,0,1-3.86-30.33,102.26,102.26,0,0,1,2.52-21.26q2.52-11.75,6.25-23.63t8.32-23.2q4.61-11.29,8.62-20.21t7-14.57q3-5.65,3.87-6.54l-6.25-.9q-5.06,3.29-17.09,16.65t-27.21,33.75q-15.16,20.37-31.37,45.79a512.19,512.19,0,0,0-29.28,52.48q-6.54,13.37-10.71,23.33a113.21,113.21,0,0,1-8.17,16.36,32.4,32.4,0,0,1-8.77,9.66q-4.77,3.27-12.19,3.27-9.81,0-15.46-5.65a36.26,36.26,0,0,1-8.63-15,93.41,93.41,0,0,1-3.86-21.26q-.9-11.9-.89-24.38,0-19.92.44-52.18t2.83-71.51q2.37-39.24,6.84-82.65T785.35,1206a697.93,697.93,0,0,1,20.52-80.87q12.33-38.5,30-67.79t41.47-46.53q23.79-17.24,54.71-17.24,16,0,26.31,4.75a40.45,40.45,0,0,1,16.35,13.38,53.23,53.23,0,0,1,8.48,20.67,139.86,139.86,0,0,1,2.38,26.91q0,22-6.25,48.76a515.66,515.66,0,0,1-16.5,55.59q-10.26,28.85-23.34,58.43t-26.76,57.38q-13.68,27.81-26.9,52.48t-23.34,43.41Zm26.46-183.75q17.55-45.48,25.43-76.7t7.87-46.09q0-22.59-5.94-22.59-7.74,0-22.9,25.27T863.7,1149q-5.07,16.35-9.37,33.89t-7.73,34.93q-3.42,17.4-6.24,34.2t-4.91,32q-5.06,35.38-7.73,69.27,8-18.72,17.54-40.73T864,1269l17.4-40.73Q889.57,1209.08,894.91,1195.69Z" transform="translate(-326.14 -993.52)"/><path class="cls-1" d="M1251.4,1501a264.16,264.16,0,0,1-26.61,21,283.53,283.53,0,0,1-34.34,20.52,263.62,263.62,0,0,1-37.61,15.61,117.82,117.82,0,0,1-36.42,6.24q-15.47,0-26-4.31a43.28,43.28,0,0,1-17.09-12,46.21,46.21,0,0,1-9.37-18.88,99.48,99.48,0,0,1-2.82-24.53q0-18.73,4.31-43.56t10.55-51.43q6.24-26.61,13.23-53.08t12.34-48.76a26.52,26.52,0,0,1,8.33-13.23,53.33,53.33,0,0,1,14.12-8.92,78.6,78.6,0,0,1,16.35-5.05,81.57,81.57,0,0,1,15.31-1.64q12.49,0,16.95,4.61t4.46,12.34q0,6.54-3,18.88t-7.44,28q-4.46,15.62-9.51,33.6t-9.51,36q-4.47,18-7.44,35.09a181.52,181.52,0,0,0-3,30.77q0,13.38,3,21.26t12.19,7.88q10.71,0,23.79-7.44a211.28,211.28,0,0,0,26.46-18q13.38-10.54,26.16-21.85t22.6-19.32ZM1118.5,1195.4a50,50,0,0,1,12.63-31.67A53.69,53.69,0,0,1,1149,1151q11.16-5.21,27.8-5.21a78.62,78.62,0,0,1,19.63,2.38,47.81,47.81,0,0,1,16,7.29,34.62,34.62,0,0,1,10.85,12.93q4,8,4,19a59.92,59.92,0,0,1-3.27,19.62,45.67,45.67,0,0,1-10.41,17,53.44,53.44,0,0,1-18,12q-10.85,4.62-26,4.61-26.17,0-38.65-12.34T1118.5,1195.4Z" transform="translate(-326.14 -993.52)"/><path class="cls-1" d="M1220.78,1450.2q16.63-14.27,27-23.79t17.84-17.39a196.13,196.13,0,0,0,13.53-15.91l14.42-19q8.33-11,20.22-26.91t30.92-39.69a103.35,103.35,0,0,1,8.62-10.41,66.13,66.13,0,0,1,10.56-9.07,55.77,55.77,0,0,1,12.78-6.54,45.76,45.76,0,0,1,15.61-2.53q14.26,0,22,3.13t11.3,7.58a18.44,18.44,0,0,1,4.16,9.36,71.25,71.25,0,0,1,.6,8.48q0,7.13-5.65,15.75a164.64,164.64,0,0,1-12.49,16.65q-6.84,8-12.93,14.72t-7,10a96.14,96.14,0,0,0,1.34,16.8,126.21,126.21,0,0,0,3.56,14.87q2.24,7.29,4.61,15.46t4.61,18.88a227.88,227.88,0,0,1,3.57,24.67q1.34,14,1.34,33a177.26,177.26,0,0,1,23-12.94q12.33-5.79,25.72-12t27.5-13.82a224.53,224.53,0,0,0,28.39-18.29l.3,66.6a275.71,275.71,0,0,1-42.66,26.76,419,419,0,0,1-50.85,22,387.41,387.41,0,0,1-53.81,15,261.19,261.19,0,0,1-51.59,5.5,155.69,155.69,0,0,1-32.7-3.27,85,85,0,0,1-26.61-10.26,56.4,56.4,0,0,1-18.58-18.29q-7.14-11.3-8.63-27.35a61.22,61.22,0,0,1-8.17,1.19q-4,.3-7.88.3c-3.17,0-6.15-.1-8.92-.3a14.8,14.8,0,0,1-7.14-2.23,13.16,13.16,0,0,1-4.75-6.24q-1.79-4.32-1.79-12.34a25.7,25.7,0,0,1,3.57-13.23,53.57,53.57,0,0,1,8.33-10.86,89.68,89.68,0,0,1,9.51-8.32Q1218.4,1452.28,1220.78,1450.2Zm38,38.06q3.57,0,7.88,4.46t10,9.81a75.18,75.18,0,0,0,13.08,9.81,32.35,32.35,0,0,0,17,4.46q11.6,0,19.18-3.87a32.1,32.1,0,0,0,12-10.25,40.16,40.16,0,0,0,6.24-14.87,85.59,85.59,0,0,0,1.79-17.69,132.48,132.48,0,0,0-1-16.35q-1-8.32-2.68-15.91t-3.57-14.27q-1.94-6.69-3.42-11.45Z" transform="translate(-326.14 -993.52)"/><path class="cls-1" d="M1579.34,1564.37q-27.36,0-48-10.11a102.65,102.65,0,0,1-34.64-27,116.87,116.87,0,0,1-21.11-39.25,151.2,151.2,0,0,1-7.14-46.38,192.22,192.22,0,0,1,3.57-36,209.59,209.59,0,0,1,10.56-36.72,202,202,0,0,1,17.24-34.34,137.46,137.46,0,0,1,23.78-28.69,110.07,110.07,0,0,1,30.18-19.62,90.19,90.19,0,0,1,36.57-7.29,91.78,91.78,0,0,1,31.37,5.21,74.19,74.19,0,0,1,24.68,14.42,66,66,0,0,1,16,21.85,64.42,64.42,0,0,1,5.8,27.2,75.47,75.47,0,0,1-2.67,19.92,61.27,61.27,0,0,1-7.88,17.7,42.74,42.74,0,0,1-12.64,12.63,30.27,30.27,0,0,1-16.65,4.76q-14,0-18.28-7.43t-4.32-20.52c0-3.57.15-7.33.45-11.3s.45-7.53.45-10.7a40.45,40.45,0,0,0-1.49-11.89,6.25,6.25,0,0,0-6.54-4.76q-12.2,0-20.81,5.8a52.24,52.24,0,0,0-14.72,15.16,81.75,81.75,0,0,0-9.66,21.11,202.84,202.84,0,0,0-5.65,23.34,184.66,184.66,0,0,0-2.68,22.15q-.6,10.56-.59,17.69a135.46,135.46,0,0,0,1.93,22.3,66.08,66.08,0,0,0,7.28,21.26,47.13,47.13,0,0,0,14.57,16.05q9.21,6.4,23.79,6.4,14.26,0,31.51-8.78a221.56,221.56,0,0,0,34.64-22.15,319.15,319.15,0,0,0,33.15-29.43,384.15,384.15,0,0,0,27.06-30.33l20.51,34.49a388.65,388.65,0,0,1-48.16,56.79,290.34,290.34,0,0,1-23.94,20.81,209.94,209.94,0,0,1-27.05,18,161.53,161.53,0,0,1-29.44,12.78A101,101,0,0,1,1579.34,1564.37Z" transform="translate(-326.14 -993.52)"/><path class="cls-1" d="M1808.87,1379.44q12.2-16.07,27.36-34.49a418.29,418.29,0,0,1,31.51-34.34,217,217,0,0,1,32.56-26.46q16.2-10.56,30.47-10.56a28.32,28.32,0,0,1,8,1.34,22.55,22.55,0,0,1,8.48,4.91,27,27,0,0,1,6.68,10q2.68,6.39,2.68,16.5a138.84,138.84,0,0,1-5.65,39.39q-5.65,19.18-12.34,38.36t-12.19,39.09a155.65,155.65,0,0,0-5.5,41.63q0,11.89,3.57,19t9.22,7.13a43.77,43.77,0,0,0,15.16-3,99.31,99.31,0,0,0,16.06-7.73,144.19,144.19,0,0,0,15.75-10.85q7.74-6.09,14.57-12.64a339.72,339.72,0,0,0,32.11-34.49l5.06,79.09q-5.36,4.17-13.53,10.41T2000.79,1525q-10,7-21.55,14.12a231.44,231.44,0,0,1-23.34,12.63,176.34,176.34,0,0,1-23.49,9.07,77.15,77.15,0,0,1-22.45,3.57q-16.35,0-28.39-8.77a70.32,70.32,0,0,1-19.77-22.3,111.8,111.8,0,0,1-11.6-29.58,129.66,129.66,0,0,1-3.87-30.33,102.33,102.33,0,0,1,2.53-21.26q2.52-11.75,6.25-23.63t8.32-23.2q4.6-11.29,8.62-20.21t7-14.57q3-5.65,3.87-6.54l-6.25-.9q-5.06,3.29-17.09,16.65t-27.21,33.75q-15.16,20.37-31.37,45.79a512.19,512.19,0,0,0-29.28,52.48q-6.54,13.37-10.71,23.33a113.21,113.21,0,0,1-8.17,16.36,32.4,32.4,0,0,1-8.77,9.66q-4.77,3.27-12.19,3.27-9.81,0-15.46-5.65a36.26,36.26,0,0,1-8.63-15,93.41,93.41,0,0,1-3.86-21.26q-.89-11.9-.89-24.38,0-19.92.44-52.18t2.83-71.51q2.37-39.24,6.84-82.65t12.63-85.78a697.93,697.93,0,0,1,20.52-80.87q12.33-38.5,30-67.79t41.47-46.53q23.79-17.24,54.71-17.24,16.05,0,26.31,4.75a40.55,40.55,0,0,1,16.36,13.38,53.53,53.53,0,0,1,8.47,20.67,139.86,139.86,0,0,1,2.38,26.91q0,22-6.25,48.76a515.66,515.66,0,0,1-16.5,55.59q-10.26,28.85-23.34,58.43t-26.76,57.38q-13.68,27.81-26.9,52.48t-23.34,43.41Zm26.46-183.75q17.55-45.48,25.42-76.7t7.88-46.09q0-22.59-5.94-22.59-7.74,0-22.9,25.27T1804.12,1149q-5.07,16.35-9.37,33.89t-7.73,34.93q-3.42,17.4-6.24,34.2t-4.91,32q-5.05,35.38-7.73,69.27,8-18.72,17.54-40.73t18.73-43.56l17.4-40.73Q1830,1209.08,1835.33,1195.69Z" transform="translate(-326.14 -993.52)"/><path class="cls-1" d="M2111.54,1564.37q-27.95,0-48.91-10.11a101,101,0,0,1-34.93-27.2,116.24,116.24,0,0,1-21-39.55,157.54,157.54,0,0,1-7-47.12,210.07,210.07,0,0,1,13.23-71.66,190.89,190.89,0,0,1,16.8-34,135.45,135.45,0,0,1,23.64-28.54,109.07,109.07,0,0,1,30.32-19.62,92.79,92.79,0,0,1,37.32-7.29,87.33,87.33,0,0,1,30.92,5.35,75.86,75.86,0,0,1,24.83,15,68.06,68.06,0,0,1,16.5,23.34,76.09,76.09,0,0,1,5.94,30.62q0,18.43-9.07,36.87a134.22,134.22,0,0,1-25.12,34.78,177.06,177.06,0,0,1-38.2,29.14,203.81,203.81,0,0,1-48,19.92,94.42,94.42,0,0,0,8.77,13.38,40,40,0,0,0,8.77,8.33,29.19,29.19,0,0,0,9.37,4.16,44.79,44.79,0,0,0,10.55,1.19q17.84,0,37.61-7.14a244.66,244.66,0,0,0,38.51-17.84A325.86,325.86,0,0,0,2227.8,1453a303.37,303.37,0,0,0,28.24-23.93l38.36,39.84a392.93,392.93,0,0,1-55.6,47.87q-12.8,8.92-27.51,17.54a249,249,0,0,1-30.92,15.31,214.39,214.39,0,0,1-33.59,10.71A156.57,156.57,0,0,1,2111.54,1564.37ZM2072,1424.63q10.71,0,23.34-5.5a105.18,105.18,0,0,0,23.49-14.12,98.65,98.65,0,0,0,18.28-18.73q7.44-10.11,7.44-19.63,0-13.38-4.91-22t-12-8.62q-12.79,0-21.85,4.76a47.33,47.33,0,0,0-15.17,12.34,64,64,0,0,0-9.81,17.24,117.23,117.23,0,0,0-5.65,19.47,148.19,148.19,0,0,0-2.53,19Q2072,1418.1,2072,1424.63Z" transform="translate(-326.14 -993.52)"/><path class="cls-1" d="M2311.34,1564.37q-16.05,0-29.88-14.12t-24.08-37.91q-10.26-23.79-16.06-55.15a362.32,362.32,0,0,1-5.79-65.86,467.47,467.47,0,0,1,3.86-57.53q3.86-31.07,11.3-64.07t17.69-66.31a677.2,677.2,0,0,1,23.19-63.92,539.16,539.16,0,0,1,28.1-57.23,310.57,310.57,0,0,1,31.81-46.38q16.65-19.77,34.79-31.07t36.86-11.3q12.78,0,21.11,5.8a40.26,40.26,0,0,1,13.09,15.31,75,75,0,0,1,6.69,21.55,155.62,155.62,0,0,1,1.93,24.53,264,264,0,0,1-6.39,56.94,443,443,0,0,1-17.25,58.27q-10.86,29.3-25.12,58.72t-29.73,58.43q-15.47,29-31.07,57.08T2327.1,1405a65.05,65.05,0,0,0-3.12,7.73q-1.64,4.76-3.12,10.26t-3,11.74q-1.49,6.24-2.38,12.19v4.16a68.38,68.38,0,0,0,1.64,15,82.22,82.22,0,0,0,4,13.08,39.26,39.26,0,0,0,5.06,9.22c1.78,2.28,3.46,3.41,5.05,3.41a42.19,42.19,0,0,0,12.94-2.37,120.52,120.52,0,0,0,15.46-6.4q8.18-4,16.8-9.21t16.65-10.56q18.72-12.48,39.24-28.84l24.38,62.44a610.85,610.85,0,0,1-52.33,33.89q-11.3,6.26-23.34,12.34T2356.83,1554a187.68,187.68,0,0,1-23.78,7.59A92.15,92.15,0,0,1,2311.34,1564.37Zm.3-237.86Q2325,1302.74,2340,1273t28.4-61.25q13.38-31.51,23.19-62.88t12.49-58.43q0-8.61-.45-14.71c-.3-4.06-1.24-6.1-2.83-6.1q-8.62,0-18.58,11.15T2362.33,1111a354.1,354.1,0,0,0-19,44.3q-9.06,25.27-16.2,53.81a555.15,555.15,0,0,0-11.3,58.72A429,429,0,0,0,2311.64,1326.51Z" transform="translate(-326.14 -993.52)"/><path class="cls-2" d="M674.35,1621.62h31.84c20.46,0,35.5,6.27,35.5,24.54,0,9.38-5.11,18.51-13.82,21.55v.61c11,2.5,19.12,10.17,19.12,23.63,0,19.91-16.32,29.22-38.24,29.22h-34.4Zm30.26,41.1c13.88,0,19.79-5.42,19.79-14.06,0-9.62-6.51-13.28-19.42-13.28H692v27.34Zm2.32,44.69c14.61,0,22.77-5.23,22.77-16.44,0-10.47-7.92-15-22.77-15H692v31.48Z" transform="translate(-326.14 -993.52)"/><path class="cls-2" d="M771.8,1693.29V1646.4h17.54V1691c0,12.29,3.53,16.92,11.63,16.92,6.58,0,10.9-3,16.56-10.35V1646.4h17.54v74.77H820.7l-1.34-11h-.49c-6.58,7.8-13.82,12.85-24,12.85C778.81,1723,771.8,1712.16,771.8,1693.29Z" transform="translate(-326.14 -993.52)"/><path class="cls-2" d="M858.91,1712.59l8.16-11.14c6.63,5.17,13.06,8.34,20.64,8.34,8.16,0,12-3.84,12-9,0-6.27-8.1-9.07-16.07-12.12-9.8-3.68-21-9.31-21-21.8,0-13,10.48-22.34,27.22-22.34a40.28,40.28,0,0,1,24.84,9l-8,10.77c-5.24-3.83-10.51-6.51-16.38-6.51-7.52,0-11.09,3.59-11.09,8.28,0,5.91,7.55,8.16,15.65,11.14,10.11,3.78,21.44,8.65,21.44,22.59,0,12.85-10.17,23.2-29,23.2C877,1723,866.21,1718.62,858.91,1712.59Z" transform="translate(-326.14 -993.52)"/><path class="cls-2" d="M936,1683.85c0-24.9,17.59-39.27,37.5-39.27a32,32,0,0,1,21.86,8.4l-8.52,11.39c-4-3.47-7.73-5.48-12.42-5.48-12.06,0-20.4,10-20.4,25s8.22,24.84,19.85,24.84c5.84,0,11.2-2.86,15.46-6.45l7.13,11.57a36.91,36.91,0,0,1-24.42,9.19C951.67,1723,936,1708.63,936,1683.85Z" transform="translate(-326.14 -993.52)"/><path class="cls-2" d="M1014.67,1701.08c0-16,13.27-24.35,44-27.64-.25-8-3.47-14.74-13.58-14.74-7.43,0-14.43,3.35-21,7.37l-6.45-11.69c8.22-5.18,18.81-9.8,30.69-9.8,18.69,0,27.88,11.5,27.88,32.33v44.26h-14.37l-1.34-8.28H1060c-6.7,5.73-14.37,10.11-23.2,10.11C1023.68,1723,1014.67,1714.11,1014.67,1701.08Zm44,.06v-16.8c-20.28,2.55-27,7.85-27,15.4,0,6.61,4.51,9.5,10.78,9.5C1048.46,1709.24,1053.09,1706.26,1058.63,1701.14Z" transform="translate(-326.14 -993.52)"/><path class="cls-2" d="M1106.21,1646.4h14.37l1.34,10.11h.49c6.7-6.51,14.31-11.93,24.54-11.93,16,0,23,10.84,23,29.71v46.88h-17.54v-44.63c0-12.3-3.53-16.92-11.63-16.92-6.58,0-10.9,3.22-17,9.31v52.24h-17.54Z" transform="translate(-326.14 -993.52)"/><path class="cls-2" d="M1195.81,1683.85c0-24.36,15.29-39.27,31.67-39.27,8.46,0,13.82,3.16,19.6,8.22l-.67-12.06v-27.09H1264v107.52h-14.37l-1.34-8.09h-.49c-5.54,5.54-13.21,9.92-21.25,9.92C1207.87,1723,1195.81,1708.51,1195.81,1683.85Zm50.6,16.26v-34.83c-5.11-4.57-10.17-6.21-15.22-6.21-9.5,0-17.35,9-17.35,24.6,0,16.25,6.21,24.84,17,24.84C1236.61,1708.51,1241.48,1706,1246.41,1700.11Z" transform="translate(-326.14 -993.52)"/><path class="cls-2" d="M1290.29,1683.85c0-24.9,16.92-39.27,35.55-39.27s35.56,14.37,35.56,39.27-16.92,39.15-35.56,39.15S1290.29,1708.63,1290.29,1683.85Zm53.09,0c0-15-6.58-25-17.54-25s-17.53,10-17.53,25,6.57,24.84,17.53,24.84S1343.38,1698.83,1343.38,1683.85Z" transform="translate(-326.14 -993.52)"/><path class="cls-2" d="M1428.87,1696v-35.62h-10.65V1647.2l11.57-.8,2.07-20.39h14.55v20.39h19.06v13.95h-19.06v35.59c0,8.79,3.41,13.12,10.59,13.12a23.34,23.34,0,0,0,7.8-1.71l3,12.91a48.51,48.51,0,0,1-15.28,2.74C1435.27,1723,1428.87,1712.1,1428.87,1696Z" transform="translate(-326.14 -993.52)"/><path class="cls-2" d="M1489.31,1693.29V1646.4h17.53V1691c0,12.29,3.53,16.92,11.63,16.92,6.58,0,10.9-3,16.56-10.35V1646.4h17.54v74.77H1538.2l-1.34-11h-.49c-6.57,7.8-13.82,12.85-24,12.85C1496.31,1723,1489.31,1712.16,1489.31,1693.29Z" transform="translate(-326.14 -993.52)"/><path class="cls-2" d="M1639.1,1713.32h-.49l-1.52,7.85h-13.83V1613.65h17.54v27.82l-.49,12.42c6.24-5.48,13.92-9.31,21.59-9.31,18.69,0,29.5,15,29.5,38,0,25.67-15.28,40.46-31.91,40.46C1652.67,1723,1645.37,1719.53,1639.1,1713.32Zm34.28-30.51c0-14.91-4.88-23.74-16.26-23.74-5.42,0-10.66,2.74-16.32,8.4v34.83c5.24,4.57,10.66,6.21,15,6.21C1665.76,1708.51,1673.38,1699.74,1673.38,1682.81Z" transform="translate(-326.14 -993.52)"/><path class="cls-2" d="M1716,1623.39c0-5.91,4.63-9.93,10.84-9.93s10.84,4,10.84,9.93-4.63,9.92-10.84,9.92S1716,1629.17,1716,1623.39Zm2,23h17.53v74.77H1718Z" transform="translate(-326.14 -993.52)"/><path class="cls-2" d="M1761.85,1683.85c0-24.29,16.87-39.27,34.46-39.27,20.22,0,30.87,14.61,30.87,35.5a45.14,45.14,0,0,1-.76,8.52H1779c1.46,13.27,10,20.82,22,20.82,6.4,0,11.88-2,17.36-5.42l6,10.9a46.38,46.38,0,0,1-25.63,8.1C1778.05,1723,1761.85,1708.51,1761.85,1683.85Zm50.17-7.18c0-11.51-5.11-18.51-15.34-18.51-8.71,0-16.38,6.51-17.9,18.51Z" transform="translate(-326.14 -993.52)"/><path class="cls-2" d="M1852.91,1646.4h14.37l1.34,10.11h.49c6.7-6.51,14.31-11.93,24.54-11.93,16,0,23,10.84,23,29.71v46.88h-17.53v-44.63c0-12.3-3.54-16.92-11.63-16.92-6.58,0-10.9,3.22-17,9.31v52.24h-17.54Z" transform="translate(-326.14 -993.52)"/><path class="cls-2" d="M1942.14,1683.85c0-24.29,16.87-39.27,34.47-39.27,20.21,0,30.87,14.61,30.87,35.5a46,46,0,0,1-.76,8.52h-47.47c1.47,13.27,10,20.82,22,20.82,6.39,0,11.87-2,17.35-5.42l6,10.9A46.44,46.44,0,0,1,1979,1723C1958.34,1723,1942.14,1708.51,1942.14,1683.85Zm50.18-7.18c0-11.51-5.12-18.51-15.35-18.51-8.7,0-16.38,6.51-17.9,18.51Z" transform="translate(-326.14 -993.52)"/><path class="cls-2" d="M2025.78,1712.59l8.16-11.14c6.63,5.17,13.06,8.34,20.64,8.34,8.16,0,12-3.84,12-9,0-6.27-8.1-9.07-16.07-12.12-9.81-3.68-21-9.31-21-21.8,0-13,10.47-22.34,27.22-22.34a40.28,40.28,0,0,1,24.84,9l-8,10.77c-5.23-3.83-10.5-6.51-16.38-6.51-7.52,0-11.08,3.59-11.08,8.28,0,5.91,7.55,8.16,15.65,11.14,10.11,3.78,21.43,8.65,21.43,22.59,0,12.85-10.16,23.2-29,23.2C2043.86,1723,2033.08,1718.62,2025.78,1712.59Z" transform="translate(-326.14 -993.52)"/><path class="cls-2" d="M2107.4,1696v-35.62h-10.65V1647.2l11.57-.8,2.07-20.39h14.55v20.39H2144v13.95h-19.06v35.59c0,8.79,3.41,13.12,10.59,13.12a23.34,23.34,0,0,0,7.8-1.71l3,12.91A48.51,48.51,0,0,1,2131,1723C2113.8,1723,2107.4,1712.1,2107.4,1696Z" transform="translate(-326.14 -993.52)"/><path class="cls-2" d="M2161.47,1701.08c0-16,13.28-24.35,44-27.64-.24-8-3.47-14.74-13.57-14.74-7.43,0-14.43,3.35-21,7.37l-6.45-11.69c8.22-5.18,18.81-9.8,30.68-9.8,18.7,0,27.89,11.5,27.89,32.33v44.26H2208.6l-1.34-8.28h-.49c-6.69,5.73-14.37,10.11-23.19,10.11C2170.48,1723,2161.47,1714.11,2161.47,1701.08Zm44,.06v-16.8c-20.27,2.55-27,7.85-27,15.4,0,6.61,4.51,9.5,10.78,9.5C2195.27,1709.24,2199.89,1706.26,2205.43,1701.14Z" transform="translate(-326.14 -993.52)"/><path class="cls-2" d="M2253,1646.4h14.37l1.34,13.34h.49c5.33-9.74,13.24-15.16,21.25-15.16a19,19,0,0,1,8.46,1.52l-3,15.22a25.38,25.38,0,0,0-7.68-1.22c-6,0-13.15,4.08-17.65,15.47v45.6H2253Z" transform="translate(-326.14 -993.52)"/><path class="cls-3" d="M5250.82,1229.55h1v7.21h3.46v.88h-4.5Z" transform="translate(-326.14 -993.52)"/><path class="cls-3" d="M5261.53,1234.69a2.84,2.84,0,0,1-2.89,3.08,2.76,2.76,0,0,1-2.78-3,2.83,2.83,0,0,1,2.88-3.08A2.74,2.74,0,0,1,5261.53,1234.69Zm-4.6.06c0,1.27.73,2.23,1.76,2.23s1.76-1,1.76-2.26c0-1-.49-2.23-1.73-2.23S5256.93,1233.64,5256.93,1234.75Z" transform="translate(-326.14 -993.52)"/><path class="cls-3" d="M5262.87,1233.64c0-.68,0-1.27-.05-1.81h.92l0,1.14h.05a1.74,1.74,0,0,1,1.61-1.27,1,1,0,0,1,.3,0v1a1.88,1.88,0,0,0-.36,0,1.48,1.48,0,0,0-1.42,1.36,3.37,3.37,0,0,0-.05.49v3.1h-1Z" transform="translate(-326.14 -993.52)"/><path class="cls-3" d="M5267.26,1234.93a1.86,1.86,0,0,0,2,2,3.8,3.8,0,0,0,1.61-.3l.18.76a4.84,4.84,0,0,1-1.93.36,2.7,2.7,0,0,1-2.86-2.93c0-1.75,1-3.13,2.73-3.13a2.46,2.46,0,0,1,2.39,2.73,4.92,4.92,0,0,1,0,.5Zm3.09-.76a1.49,1.49,0,0,0-1.46-1.71,1.75,1.75,0,0,0-1.62,1.71Z" transform="translate(-326.14 -993.52)"/><path class="cls-3" d="M5272.68,1233.4c0-.6,0-1.09,0-1.57h.92l0,.94h0a2,2,0,0,1,1.83-1.07,1.71,1.71,0,0,1,1.64,1.16h0a2.42,2.42,0,0,1,.65-.75,2,2,0,0,1,1.28-.41c.77,0,1.91.5,1.91,2.52v3.42h-1v-3.29c0-1.12-.41-1.79-1.26-1.79a1.38,1.38,0,0,0-1.25,1,2.11,2.11,0,0,0-.08.53v3.59h-1v-3.48c0-.93-.41-1.6-1.21-1.6a1.45,1.45,0,0,0-1.31,1.06,1.4,1.4,0,0,0-.08.51v3.51h-1Z" transform="translate(-326.14 -993.52)"/><path class="cls-3" d="M5286.41,1230.2a.62.62,0,0,1-.67.65.63.63,0,0,1-.64-.65.65.65,0,0,1,.66-.66A.63.63,0,0,1,5286.41,1230.2Zm-1.17,7.44v-5.81h1.05v5.81Z" transform="translate(-326.14 -993.52)"/><path class="cls-3" d="M5288,1233.73c0-.75,0-1.35,0-1.9h.94l.05,1h0a2.27,2.27,0,0,1,2.06-1.13c1.4,0,2.46,1.19,2.46,3,0,2.09-1.27,3.12-2.64,3.12a2.05,2.05,0,0,1-1.79-.91h0V1240H5288Zm1.05,1.54a2,2,0,0,0,.05.44,1.62,1.62,0,0,0,1.58,1.23c1.11,0,1.76-.91,1.76-2.24,0-1.17-.61-2.16-1.73-2.16a1.68,1.68,0,0,0-1.59,1.31,1.49,1.49,0,0,0-.07.43Z" transform="translate(-326.14 -993.52)"/><path class="cls-3" d="M5294.73,1236.56a2.79,2.79,0,0,0,1.39.42c.77,0,1.13-.39,1.13-.87s-.3-.78-1.08-1.06c-1.05-.38-1.54-1-1.54-1.65a1.79,1.79,0,0,1,2-1.7,2.91,2.91,0,0,1,1.43.36l-.26.77a2.22,2.22,0,0,0-1.19-.34c-.62,0-1,.36-1,.79s.35.7,1.1,1c1,.38,1.53.88,1.53,1.75,0,1-.8,1.74-2.18,1.74a3.33,3.33,0,0,1-1.63-.4Z" transform="translate(-326.14 -993.52)"/><path class="cls-3" d="M5304.48,1236.05c0,.6,0,1.13.05,1.59h-.94l-.06-1h0a2.19,2.19,0,0,1-1.92,1.08c-.91,0-2-.51-2-2.54v-3.4h1.05v3.22c0,1.1.34,1.84,1.3,1.84a1.52,1.52,0,0,0,1.39-1,1.49,1.49,0,0,0,.1-.54v-3.56h1Z" transform="translate(-326.14 -993.52)"/><path class="cls-3" d="M5306.24,1233.4c0-.6,0-1.09-.05-1.57h.92l.05.94h0a2,2,0,0,1,1.82-1.07,1.71,1.71,0,0,1,1.64,1.16h0a2.39,2.39,0,0,1,.64-.75,2,2,0,0,1,1.29-.41c.76,0,1.9.5,1.9,2.52v3.42h-1v-3.29c0-1.12-.41-1.79-1.26-1.79a1.37,1.37,0,0,0-1.24,1,1.73,1.73,0,0,0-.09.53v3.59h-1v-3.48c0-.93-.41-1.6-1.21-1.6a1.45,1.45,0,0,0-1.31,1.06,1.4,1.4,0,0,0-.08.51v3.51h-1Z" transform="translate(-326.14 -993.52)"/></svg>